HIERARCHY
ROOT Hips
{
	OFFSET 0.00000 0.00000 0.00000
	CHANNELS 6 Xposition Yposition Zposition Zrotation Yrotation Xrotation 
	JOINT LHipJoint
	{
		OFFSET 0 0 0
		CHANNELS 3 Zrotation Yrotation Xrotation
		JOINT LeftUpLeg
		{
			OFFSET 1.53139 -1.83434 0.76626
			CHANNELS 3 Zrotation Yrotation Xrotation
			JOINT LeftLeg
			{
				OFFSET 2.56112 -7.03663 0.00000
				CHANNELS 3 Zrotation Yrotation Xrotation
				JOINT LeftFoot
				{
					OFFSET 2.59983 -7.14299 0.00000
					CHANNELS 3 Zrotation Yrotation Xrotation
					JOINT LeftToeBase
					{
						OFFSET 0.13742 -0.37757 2.00054
						CHANNELS 3 Zrotation Yrotation Xrotation
						End Site
						{
							OFFSET 0.00000 -0.00000 1.02897
						}
					}
				}
			}
		}
	}
	JOINT RHipJoint
	{
		OFFSET 0 0 0
		CHANNELS 3 Zrotation Yrotation Xrotation
		JOINT RightUpLeg
		{
			OFFSET -1.40122 -1.83435 0.76627
			CHANNELS 3 Zrotation Yrotation Xrotation
			JOINT RightLeg
			{
				OFFSET -2.54052 -6.98003 0.00000
				CHANNELS 3 Zrotation Yrotation Xrotation
				JOINT RightFoot
				{
					OFFSET -2.63179 -7.23079 0.00000
					CHANNELS 3 Zrotation Yrotation Xrotation
					JOINT RightToeBase
					{
						OFFSET -0.24131 -0.66299 2.03908
						CHANNELS 3 Zrotation Yrotation Xrotation
						End Site
						{
							OFFSET -0.00000 -0.00000 1.07391
						}
					}
				}
			}
		}
	}
	JOINT LowerBack
	{
		OFFSET 0 0 0
		CHANNELS 3 Zrotation Yrotation Xrotation
		JOINT Spine
		{
			OFFSET 0.01174 2.10302 -0.29778
			CHANNELS 3 Zrotation Yrotation Xrotation
			JOINT Spine1
			{
				OFFSET 0.00772 2.13227 -0.01247
				CHANNELS 3 Zrotation Yrotation Xrotation
				JOINT Neck
				{
					OFFSET 0 0 0
					CHANNELS 3 Zrotation Yrotation Xrotation
					JOINT Neck1
					{
						OFFSET -0.09219 1.60848 0.31481
						CHANNELS 3 Zrotation Yrotation Xrotation
						JOINT Head
						{
							OFFSET 0.13974 1.65456 -0.31134
							CHANNELS 3 Zrotation Yrotation Xrotation
							End Site
							{
								OFFSET 0.04742 1.69515 -0.14578
							}
						}
					}
				}
				JOINT LeftShoulder
				{
					OFFSET 0 0 0
					CHANNELS 3 Zrotation Yrotation Xrotation
					JOINT LeftArm
					{
						OFFSET 3.24909 1.02882 -0.23993
						CHANNELS 3 Zrotation Yrotation Xrotation
						JOINT LeftForeArm
						{
							OFFSET 5.32955 -0.00000 -0.00000
							CHANNELS 3 Zrotation Yrotation Xrotation
							JOINT LeftHand
							{
								OFFSET 3.69232 -0.00000 -0.00000
								CHANNELS 3 Zrotation Yrotation Xrotation
								JOINT LeftFingerBase
								{
									OFFSET 0 0 0
									CHANNELS 3 Zrotation Yrotation Xrotation
									JOINT LeftHandIndex1
									{
										OFFSET 0.53660 -0.00000 -0.00000
										CHANNELS 3 Zrotation Yrotation Xrotation
										End Site
										{
											OFFSET 0.43262 -0.00000 -0.00000
										}
									}
								}
								JOINT LThumb
								{
									OFFSET 0 0 0
									CHANNELS 3 Zrotation Yrotation Xrotation
									End Site
									{
										OFFSET 0.43922 -0.00000 0.43922
									}
								}
							}
						}
					}
				}
				JOINT RightShoulder
				{
					OFFSET 0 0 0
					CHANNELS 3 Zrotation Yrotation Xrotation
					JOINT RightArm
					{
						OFFSET -3.21387 0.93002 -0.34594
						CHANNELS 3 Zrotation Yrotation Xrotation
						JOINT RightForeArm
						{
							OFFSET -5.23431 -0.00000 0.00000
							CHANNELS 3 Zrotation Yrotation Xrotation
							JOINT RightHand
							{
								OFFSET -3.55301 -0.00000 -0.00000
								CHANNELS 3 Zrotation Yrotation Xrotation
								JOINT RightFingerBase
								{
									OFFSET 0 0 0
									CHANNELS 3 Zrotation Yrotation Xrotation
									JOINT RightHandIndex1
									{
										OFFSET -0.77252 -0.00000 -0.00000
										CHANNELS 3 Zrotation Yrotation Xrotation
										End Site
										{
											OFFSET -0.62283 -0.00000 -0.00000
										}
									}
								}
								JOINT RThumb
								{
									OFFSET 0 0 0
									CHANNELS 3 Zrotation Yrotation Xrotation
									End Site
									{
										OFFSET -0.63234 -0.00000 0.63234
									}
								}
							}
						}
					}
				}
			}
		}
	}
}
MOTION
Frames: 10
Frame Time: 0.2
0.00 0.00 0.00 0 0 0 0 0 0 -21 0 0 0 0 0 0 0 0 0 0 0 0 0 0 21 0 0 0 0 0 0 0 0 0 0 0 0 0 0 0 0 0 0 0 0 0 0 -16 0 0 21 0 0 11 0 0 0 -8 0 0 0 0 0 0 0 0 0 0 0 0 0 0 0 0 0 0 0 0 8 0 0 0 0 0 0 0 0 0 0 0 0 0 0 0 0 0
0.00 0.00 0.00 0.8041 -2.0959 -0.1962 0.0000 0.0000 0.0000 -22.9018 -3.6206 4.6467 4.8729 13.2393 40.2709 1.2856 -6.6310 24.7513 0.0377 -1.2537 -3.4471 0.0000 0.0000 0.0000 21.9123 3.8664 -17.0846 -1.5396 -7.8330 22.2080 -0.0172 1.5495 -2.4119 -0.2217 -3.0309 8.3647 -2.5336 -0.4110 11.4278 1.4895 -0.7843 0.8186 3.1198 -0.3079 -5.4998 -11.7650 -4.9572 -23.0384 8.5176 -5.4168 27.8186 4.4059 -2.4486 13.9071 -0.0000 0.0000 0.0000 -85.7038 -3.9487 23.2287 17.1610 -27.0695 -4.1603 -0.0000 -0.0000 6.8171 20.4397 26.1526 9.3284 -7.1250 0.0000 -0.0000 -10.5177 57.3252 -3.1989 -0.0000 0.0000 0.0000 90.6505 -4.5675 8.1924 -12.9896 21.2720 -2.4495 0.0000 0.0000 9.8663 -16.8737 11.8780 -3.5725 7.1250 -0.0000 -0.0000 7.1936 -17.6424 4.7125
0.00 0.00 0.00 -1.8027 -3.2229 -0.5191 0.0000 0.0000 0.0000 -18.5420 -6.9279 -9.7588 9.3174 17.0077 57.1814 0.2129 -5.3995 12.3604 0.2881 -3.4521 -9.5401 0.0000 0.0000 0.0000 25.7990 1.5703 -9.2258 -1.1302 -6.7522 18.9834 -0.1041 2.6869 -5.7551 -0.1410 -2.4200 6.6679 -0.0437 0.5289 11.8452 1.7918 0.8035 0.8517 1.7724 0.4173 -5.7804 -11.9479 -5.3406 -22.3954 9.0823 -6.1717 27.7766 4.5268 -2.7306 13.8845 0.0000 -0.0000 0.0000 -85.7566 -0.9513 25.5395 16.4455 -26.1210 -3.8400 -0.0000 -0.0000 7.9741 20.7918 26.2747 9.5413 -7.1250 0.0000 -0.0000 -10.2028 57.5251 -3.1511 0.0000 -0.0000 0.0000 89.3988 -2.7106 11.6277 -15.1930 24.4143 -3.3053 0.0000 0.0000 6.5834 -16.9198 9.8004 -2.9641 7.1250 -0.0000 -0.0000 7.1680 -19.7854 4.3524
0.00 0.00 0.00 -2.4137 -4.6796 -1.2195 0.0000 0.0000 0.0000 -17.0854 -9.2969 -18.7638 7.3428 15.6139 50.1591 0.0318 -1.6979 -3.2051 0.3649 -3.8803 -10.7403 0.0000 0.0000 0.0000 26.8257 2.1324 -4.3322 -1.6506 -8.0970 23.0090 -0.5318 2.1472 -13.2051 -0.0787 -1.8098 4.9804 1.4039 1.4576 12.5138 1.2695 2.2069 1.0087 0.1586 1.0604 -5.9550 -12.0170 -5.6061 -21.8386 9.0643 -6.5757 27.5239 4.4460 -2.9243 13.7180 0.0000 -0.0000 0.0000 -86.1139 2.3707 26.3752 16.8658 -26.6805 -4.0269 -0.0000 -0.0000 6.1271 20.7177 25.3353 9.1934 -7.1250 0.0000 -0.0000 -9.8291 56.5569 -2.8037 0.0000 -0.0000 0.0000 88.1420 1.2429 15.1939 -17.0898 26.9759 -4.1280 0.0000 0.0000 4.0949 -16.7695 7.2160 -2.1677 7.1250 -0.0000 -0.0000 7.3235 -22.4658 4.0010
0.00 0.00 0.00 -2.9377 -4.6654 -0.7813 0.0000 0.0000 0.0000 -16.1250 -10.3230 -20.8767 3.6161 11.6313 34.4397 0.0522 4.0130 -7.5210 0.1976 -2.8625 -7.8962 0.0000 0.0000 0.0000 27.4240 0.7442 -0.6298 -1.4413 -7.5898 21.4750 -0.6462 1.4855 -14.7507 -0.0099 -0.6421 1.7646 1.9466 1.7395 12.0379 1.2548 2.6470 0.8266 -0.2251 1.2631 -5.8544 -12.0209 -5.7275 -21.9052 8.9820 -6.7269 27.7134 4.3903 -3.0007 13.8305 0.0000 0.0000 0.0000 -87.3059 3.8504 25.0668 16.2926 -25.9158 -3.7729 -0.0000 -0.0000 7.3621 20.7890 25.6880 9.3451 -7.1250 0.0000 -0.0000 -9.9197 56.9302 -2.9197 0.0000 0.0000 0.0000 86.7474 3.4147 17.6560 -18.4921 28.7827 -4.7838 0.0000 0.0000 2.9833 -16.6997 7.0757 -2.1164 7.1250 -0.0000 -0.0000 7.3784 -22.6138 4.0064
0.00 0.00 0.00 -3.7040 -5.0919 -0.3757 0.0000 0.0000 0.0000 -15.1955 -10.0732 -20.3338 1.2173 6.9984 19.7106 -0.0724 5.5360 -5.0166 0.5642 -4.8108 -13.3697 0.0000 0.0000 0.0000 28.0298 -0.5703 3.1596 -1.1503 -6.8101 19.1539 -0.6919 1.3685 -15.3074 -0.0029 -0.3466 0.9524 2.4439 2.0576 11.3438 1.4385 3.1239 0.8023 -0.3630 1.4929 -5.4692 -11.5345 -5.5885 -22.3887 8.7861 -6.5882 27.8073 4.2536 -2.9027 13.9231 0.0000 0.0000 0.0000 -88.2870 4.6471 24.1949 15.7369 -25.1626 -3.5333 -0.0000 -0.0000 7.6582 20.5831 25.1877 9.0805 -7.1250 0.0000 -0.0000 -9.9026 56.3789 -2.7821 0.0000 0.0000 0.0000 86.0945 5.0794 18.4746 -19.0673 29.5022 -5.0640 0.0000 0.0000 2.0996 -16.5720 8.1268 -2.4089 7.1250 -0.0000 -0.0000 7.4443 -21.5335 4.2274
0.00 0.00 0.00 -1.6022 -4.8720 -2.0935 0.0000 0.0000 0.0000 -21.6183 -3.3519 -13.5404 0.3104 3.5819 9.9033 0.0066 6.2970 4.5856 0.0024 -0.3195 -0.8777 0.0000 0.0000 0.0000 22.9423 -3.2496 8.8747 -3.1719 -10.9682 32.1727 -0.0084 -1.9849 -3.4545 -0.1165 2.2005 -6.0601 -0.2072 2.5800 9.6731 0.2407 3.4204 0.3667 -0.1079 1.6945 -5.0654 -11.2674 -5.4305 -21.0591 9.0889 -6.7997 28.8852 4.3431 -2.9664 14.1337 0.0000 -0.0000 0.0000 -89.9584 6.9380 18.6835 12.4354 -20.4544 -2.2521 -0.0000 -0.0000 13.3822 19.6761 24.3939 8.4009 -7.1250 0.0000 -0.0000 -10.4882 55.3884 -2.6962 0.0000 -0.0000 0.0000 89.5178 3.8274 14.7344 -17.8146 27.9192 -4.4621 0.0000 0.0000 4.1568 -16.8602 8.4210 -2.5413 7.1250 -0.0000 -0.0000 7.2301 -21.2152 4.1563
0.00 0.00 0.00 0.0992 -2.8474 -3.5259 0.0000 0.0000 0.0000 -25.2908 0.0635 -8.5580 0.2419 3.1653 8.7394 0.0656 2.0098 4.5580 0.0037 0.3928 1.0793 0.0000 0.0000 0.0000 18.7847 -4.1848 1.4944 -6.6080 -14.9927 47.3755 -0.5905 -4.0661 13.7037 -0.2591 -3.2747 9.0445 -1.4131 2.1732 10.0238 -0.2785 2.7142 0.6257 0.1186 1.3670 -5.0189 -11.1164 -5.2468 -21.0839 8.6887 -6.4698 29.2779 4.2287 -2.8630 14.2417 0.0000 -0.0000 0.0000 -89.6676 6.4829 19.3106 12.8352 -21.0453 -2.3938 -0.0000 -0.0000 12.9196 19.2334 23.8215 8.0209 -7.1250 0.0000 -0.0000 -10.6913 54.7219 -2.5752 0.0000 -0.0000 0.0000 90.8394 1.4500 13.4333 -17.4919 27.5017 -4.3120 0.0000 0.0000 4.4328 -16.9218 6.3271 -1.9203 7.1250 -0.0000 -0.0000 7.2382 -23.3797 3.8009
0.00 0.00 0.00 2.0749 -0.0381 -5.3118 0.0000 0.0000 0.0000 -29.0023 2.8742 -1.6022 0.1755 2.6987 7.4411 -0.0025 -1.3185 1.5214 0.0013 -0.2288 -0.6287 0.0000 0.0000 0.0000 14.4210 -2.6385 -8.5490 -11.4637 -18.1546 64.2785 -0.1923 -5.6823 8.1948 -0.4197 -4.1581 11.5220 -3.2714 1.8212 11.0108 -0.6443 1.9842 1.0346 0.8639 1.0413 -5.1810 -11.5976 -5.1226 -20.7352 8.3717 -6.0289 29.2551 4.2647 -2.7762 14.1064 0.0000 -0.0000 0.0000 -88.4317 4.4818 22.6452 14.6068 -23.5954 -3.0668 -0.0000 -0.0000 10.8041 19.6299 22.0767 7.6352 -7.1250 0.0000 -0.0000 -9.5784 53.0246 -1.9049 0.0000 -0.0000 0.0000 91.1675 -0.0876 13.2499 -15.7234 25.1441 -3.5276 0.0000 0.0000 8.6219 -16.6049 8.4845 -2.5193 7.1250 -0.0000 -0.0000 7.4129 -21.1625 4.2721
0.00 0.00 0.00 4.1698 8.9626 -4.8318 0.0000 0.0000 0.0000 -32.2607 1.2648 1.7507 0.7571 5.5570 15.5043 0.0094 -7.4766 -5.4459 0.0986 2.0252 5.5753 0.0000 0.0000 0.0000 10.2742 4.1746 -19.7437 -9.9901 -17.4043 59.4552 -0.1258 0.0056 -6.6953 -0.0006 0.1599 -0.4394 -6.6869 0.2863 10.6965 -0.4552 -0.4400 0.8371 3.3565 -0.0733 -5.0840 -12.0883 -5.1634 -20.4366 8.0109 -5.8473 30.0196 4.2655 -2.8138 14.3629 -0.0000 -0.0000 0.0000 -87.3322 0.6464 25.8802 19.7024 -30.2821 -5.3804 -0.0000 -0.0000 4.0118 19.9970 25.3986 8.8715 -7.1250 0.0000 -0.0000 -10.6182 56.4697 -3.0097 -0.0000 -0.0000 0.0000 91.3500 -2.2873 8.0614 -14.2023 23.0232 -2.9068 0.0000 0.0000 11.9770 -16.2943 7.7489 -2.2570 7.1250 -0.0000 -0.0000 7.6550 -21.9363 4.2785
